<svg xmlns="http://www.w3.org/2000/svg" viewBox="0 0 32 32" width="32" height="32"><rect stroke="none" fill="#21212100" width="32" height="32"></rect><defs><filter id="filter-b1" filterUnits="userSpaceOnUse"><feGaussianBlur stdDeviation="0"></feGaussianBlur></filter><filter id="filter-b2" filterUnits="userSpaceOnUse"><feGaussianBlur stdDeviation="0"></feGaussianBlur></filter><filter id="filter-b3" filterUnits="userSpaceOnUse"><feGaussianBlur stdDeviation="0"></feGaussianBlur></filter></defs><g id="80dcfef4-1feb-4f14-a6ca-431ea8b630a0" name="bg"></g><g id="dc9b1729-189e-49ee-9161-73eec25bc758" name="default"><g><path d="M12.05,2.99L19.95,2.99L29.01,12.05L29.01,19.95L19.95,29.01L12.05,29.01L2.99,19.95L2.99,12.05zM13.37,5.94L18.63,5.94L26.06,13.37L26.06,18.63L18.63,26.06L13.37,26.06L5.94,18.63L5.94,13.37z" fill="hsl(256,100%,50%)" fill-rule="evenodd" stroke="none" filter="url('#filter-b1')"></path><path d="M14.14,9.88L17.86,9.88L22.12,14.14L22.12,17.86L17.86,22.12L14.14,22.12L9.88,17.86L9.88,14.14zM15.38,12.86L16.62,12.86L19.14,15.38L19.14,16.62L16.62,19.14L15.38,19.14L12.86,16.62L12.86,15.38z" fill="hsl(256,100%,50%)" fill-rule="evenodd" stroke="none" filter="url('#filter-b1')"></path><path d="M12.28,3.75L19.72,3.75L28.25,12.28L28.25,19.72L19.72,28.25L12.28,28.25L3.75,19.72L3.75,12.28zM12.96,5.22L19.04,5.22L26.78,12.96L26.78,19.04L19.04,26.78L12.96,26.78L5.22,19.04L5.22,12.96z" fill="hsl(256,100%,55.00000000000001%)" fill-rule="evenodd" stroke="none" filter="url('#filter-b2')"></path><path d="M14.37,10.64L17.63,10.64L21.36,14.37L21.36,17.63L17.63,21.36L14.37,21.36L10.64,17.63L10.64,14.37zM15.03,12.12L16.97,12.12L19.88,15.03L19.88,16.97L16.97,19.88L15.03,19.88L12.12,16.97L12.12,15.03z" fill="hsl(256,100%,55.00000000000001%)" fill-rule="evenodd" stroke="none" filter="url('#filter-b2')"></path><path d="M12.46,4.33L19.54,4.33L27.67,12.46L27.67,19.54L19.54,27.67L12.46,27.67L4.33,19.54L4.33,12.46zM12.63,4.69L19.37,4.69L27.31,12.63L27.31,19.37L19.37,27.31L12.63,27.31L4.69,19.37L4.69,12.63z" fill="hsl(256,100%,100%)" fill-rule="evenodd" stroke="none" filter="url('#filter-b3')"></path><path d="M14.55,11.22L17.45,11.22L20.78,14.55L20.78,17.45L17.45,20.78L14.55,20.78L11.22,17.45L11.22,14.55zM14.72,11.58L17.28,11.58L20.42,14.72L20.42,17.28L17.28,20.42L14.72,20.42L11.58,17.28L11.58,14.72z" fill="hsl(256,100%,100%)" fill-rule="evenodd" stroke="none" filter="url('#filter-b3')"></path></g></g></svg>