<svg xmlns="http://www.w3.org/2000/svg" viewBox="0 0 256 256" width="256" height="256" preserveAspectRatio="xMidYMid"><rect stroke="none" fill="#ffffff00" width="256" height="256"></rect><defs><filter id="filter-b1" filterUnits="userSpaceOnUse"><feGaussianBlur stdDeviation="5"></feGaussianBlur></filter><filter id="filter-b2" filterUnits="userSpaceOnUse"><feGaussianBlur stdDeviation="1.5"></feGaussianBlur></filter></defs><g id="2e0f4839-795d-4332-848a-9496787d8186" name="default"><g><path d="M109.11,20.85L146.89,20.85L235.15,109.11L235.15,146.89L146.89,235.15L109.11,235.15L20.85,146.89L20.85,109.11z" fill="none" stroke="#0080ff" stroke-width="16" stroke-linejoin="round" filter="url('#filter-b1')"></path><path d="M120.44,85.14L135.56,85.14L170.86,120.44L170.86,135.56L135.56,170.86L120.44,170.86L85.14,135.56L85.14,120.44z" fill="none" stroke="#0080ff" stroke-width="16" stroke-linejoin="round" filter="url('#filter-b1')"></path><path d="M109.11,20.85L146.89,20.85L235.15,109.11L235.15,146.89L146.89,235.15L109.11,235.15L20.85,146.89L20.85,109.11z" fill="none" stroke="#00e0ff" stroke-width="2" stroke-linejoin="round" filter="url('#filter-b2')"></path><path d="M120.44,85.14L135.56,85.14L170.86,120.44L170.86,135.56L135.56,170.86L120.44,170.86L85.14,135.56L85.14,120.44z" fill="none" stroke="#00e0ff" stroke-width="2" stroke-linejoin="round" filter="url('#filter-b2')"></path><path d="M109.11,20.85L146.89,20.85L235.15,109.11L235.15,146.89L146.89,235.15L109.11,235.15L20.85,146.89L20.85,109.11z" fill="none" stroke="#ffffff" stroke-linejoin="round" filter="url('#filter-b2')"></path><path d="M120.44,85.14L135.56,85.14L170.86,120.44L170.86,135.56L135.56,170.86L120.44,170.86L85.14,135.56L85.14,120.44z" fill="none" stroke="#ffffff" stroke-linejoin="round" filter="url('#filter-b2')"></path></g></g></svg>