<svg xmlns="http://www.w3.org/2000/svg" viewBox="0 0 16 16" width="16" height="16"><rect stroke="none" fill="#21212100" width="16" height="16"></rect><g id="80dcfef4-1feb-4f14-a6ca-431ea8b630a0" name="bg"></g><g id="dc9b1729-189e-49ee-9161-73eec25bc758" name="default"><g><path d="M6.48,2.98L9.52,2.98L13.02,6.48L13.02,9.52L9.52,13.02L6.48,13.02L2.98,9.52L2.98,6.48z" fill="none" stroke="hsl(256,100%,50%)" stroke-width="1.6" stroke-linejoin="round"></path><path d="M7.39,5.99L8.61,5.99L10.01,7.39L10.01,8.61L8.61,10.01L7.39,10.01L5.99,8.61L5.99,7.39z" fill="none" stroke="hsl(256,100%,50%)" stroke-width="1.6" stroke-linejoin="round"></path><path d="M6.48,2.98L9.52,2.98L13.02,6.48L13.02,9.52L9.52,13.02L6.48,13.02L2.98,9.52L2.98,6.48z" fill="none" stroke="hsl(256,100%,80%)" stroke-width="0.8" stroke-linejoin="round"></path><path d="M7.39,5.99L8.61,5.99L10.01,7.39L10.01,8.61L8.61,10.01L7.39,10.01L5.99,8.61L5.99,7.39z" fill="none" stroke="hsl(256,100%,80%)" stroke-width="0.8" stroke-linejoin="round"></path></g></g></svg>