<svg xmlns="http://www.w3.org/2000/svg" viewBox="0 0 256 256" width="256" height="256"><rect stroke="none" fill="#21212100" width="256" height="256"></rect><defs><filter id="filter-b1" filterUnits="userSpaceOnUse"><feGaussianBlur stdDeviation="16.64"></feGaussianBlur></filter><filter id="filter-b2" filterUnits="userSpaceOnUse"><feGaussianBlur stdDeviation="5.546666666666667"></feGaussianBlur></filter><filter id="filter-b3" filterUnits="userSpaceOnUse"><feGaussianBlur stdDeviation="1.3866666666666667"></feGaussianBlur></filter></defs><g id="80dcfef4-1feb-4f14-a6ca-431ea8b630a0" name="bg"></g><g id="dc9b1729-189e-49ee-9161-73eec25bc758" name="default"><g><path d="M99.58,34.30L156.42,34.30L221.70,99.58L221.70,156.42L156.42,221.70L99.58,221.70L34.30,156.42L34.30,99.58zM109.09,55.55L146.91,55.55L200.45,109.09L200.45,146.91L146.91,200.45L109.09,200.45L55.55,146.91L55.55,109.09z" fill="hsl(256,100%,50%)" fill-rule="evenodd" stroke="none" filter="url('#filter-b1')"></path><path d="M114.62,83.90L141.38,83.90L172.10,114.62L172.10,141.38L141.38,172.10L114.62,172.10L83.90,141.38L83.90,114.62zM123.51,105.40L132.49,105.40L150.60,123.51L150.60,132.49L132.49,150.60L123.51,150.60L105.40,132.49L105.40,123.51z" fill="hsl(256,100%,50%)" fill-rule="evenodd" stroke="none" filter="url('#filter-b1')"></path><path d="M101.25,39.81L154.75,39.81L216.19,101.25L216.19,154.75L154.75,216.19L101.25,216.19L39.81,154.75L39.81,101.25zM106.11,50.39L149.89,50.39L205.61,106.11L205.61,149.89L149.89,205.61L106.11,205.61L50.39,149.89L50.39,106.11z" fill="hsl(256,100%,55.00000000000001%)" fill-rule="evenodd" stroke="none" filter="url('#filter-b2')"></path><path d="M116.30,89.42L139.70,89.42L166.58,116.30L166.58,139.70L139.70,166.58L116.30,166.58L89.42,139.70L89.42,116.30zM121.00,100.06L135.00,100.06L155.94,121.00L155.94,135.00L135.00,155.94L121.00,155.94L100.06,135.00L100.06,121.00z" fill="hsl(256,100%,55.00000000000001%)" fill-rule="evenodd" stroke="none" filter="url('#filter-b2')"></path><path d="M102.50,43.94L153.50,43.94L212.06,102.50L212.06,153.50L153.50,212.06L102.50,212.06L43.94,153.50L43.94,102.50zM103.74,46.58L152.26,46.58L209.42,103.74L209.42,152.26L152.26,209.42L103.74,209.42L46.58,152.26L46.58,103.74z" fill="hsl(256,100%,100%)" fill-rule="evenodd" stroke="none" filter="url('#filter-b3')"></path><path d="M117.55,93.55L138.45,93.55L162.45,117.55L162.45,138.45L138.45,162.45L117.55,162.45L93.55,138.45L93.55,117.55zM118.78,96.19L137.22,96.19L159.81,118.78L159.81,137.22L137.22,159.81L118.78,159.81L96.19,137.22L96.19,118.78z" fill="hsl(256,100%,100%)" fill-rule="evenodd" stroke="none" filter="url('#filter-b3')"></path></g></g></svg>